#tb 0: 1/1000000
#media_type 0: video
#codec_id 0: rawvideo
#dimensions 0: 1920x1080
#sar 0: 0/1
0,      67467,      67467,        0,  8294400, 0x00000000
0,      67467,      67467,        0,  8294400, 0xa87c518f
0,     401132,     401132,        0,  8294400, 0xa87c518f
